<svg width="40" height="40" viewBox="0 0 40 40" fill="none" xmlns="http://www.w3.org/2000/svg">
	<path d="M14.3061 6.81604C16.8401 2.27201 18.106 0 20 0C21.894 0 23.1599 2.27201 25.6939 6.81604L26.3498 7.99205C27.0698 9.28406 27.4298 9.93006 27.9898 10.3561C28.5498 10.7821 29.2498 10.9401 30.6497 11.2561L31.9217 11.5441C36.8416 12.6581 39.2995 13.2141 39.8855 15.0961C40.4695 16.9761 38.7936 18.9381 35.4396 22.8601L34.5717 23.8742C33.6197 24.9882 33.1417 25.5462 32.9277 26.2342C32.7137 26.9242 32.7857 27.6682 32.9297 29.1542L33.0617 30.5082C33.5677 35.7422 33.8217 38.3582 32.2897 39.5203C30.7577 40.6823 28.4538 39.6223 23.8499 37.5022L22.6559 36.9542C21.348 36.3502 20.694 36.0502 20 36.0502C19.306 36.0502 18.652 36.3502 17.3441 36.9542L16.1521 37.5022C11.5462 39.6223 9.24225 40.6823 7.71229 39.5223C6.17832 38.3582 6.43232 35.7422 6.93831 30.5082L7.0703 29.1562C7.2143 27.6682 7.2863 26.9242 7.0703 26.2362C6.85831 25.5462 6.38032 24.9882 5.42834 23.8762L4.56036 22.8601C1.20644 18.9401 -0.469519 16.9781 0.114467 15.0961C0.698454 13.2141 3.1604 12.6561 8.08028 11.5441L9.35225 11.2561C10.7502 10.9401 11.4482 10.7821 12.0102 10.3561C12.5722 9.93006 12.9302 9.28406 13.6501 7.99205L14.3061 6.81604Z" fill="#3B3B3B"/>
</svg>
